{
  "asset": {
    "version": "2.0",
    "generator": "3dpea GLTFExporter"
  },
  "scenes": [
    {
      "name": "AuxScene",
      "nodes": [
        2
      ]
    }
  ],
  "scene": 0,
  "nodes": [
    {
      "matrix": [
        -0.26722592676628665,
        -0.050163219439339914,
        -1.9541072711212728,
        0,
        0.0987780844068997,
        0.02380326142749979,
        -0.014119040241583121,
        0,
        0.4603381570102392,
        -1.918427031423517,
        -0.01370432650016366,
        0,
        0.03230993449687958,
        0.0426332950592041,
        0.02756548300385475,
        1
      ],
      "name": "Cylinder001",
      "extras": {
        "name": "Cylinder.001"
      },
      "mesh": 0
    },
    {
      "matrix": [
        -3.8037461193736086,
        -0.7140320978014205,
        -27.8151459743111,
        0,
        0.9629189562599407,
        0.2320414112826299,
        -0.1376366833615279,
        0,
        6.552542591053211,
        -27.30726654350124,
        -0.19507140294019495,
        0,
        0.042312994599342346,
        0.014205158688127995,
        0.05151299014687538,
        1
      ],
      "name": "Curve001",
      "extras": {
        "name": "Curve.001"
      },
      "mesh": 1
    },
    {
      "name": "coin",
      "children": [
        0,
        1
      ]
    }
  ],
  "bufferViews": [
    {
      "buffer": 0,
      "byteOffset": 0,
      "byteLength": 54648,
      "target": 34962,
      "byteStride": 12
    },
    {
      "buffer": 0,
      "byteOffset": 54648,
      "byteLength": 54648,
      "target": 34962,
      "byteStride": 12
    },
    {
      "buffer": 0,
      "byteOffset": 109296,
      "byteLength": 36432,
      "target": 34962,
      "byteStride": 8
    },
    {
      "buffer": 0,
      "byteOffset": 145728,
      "byteLength": 36432,
      "target": 34962,
      "byteStride": 8
    },
    {
      "buffer": 0,
      "byteOffset": 182160,
      "byteLength": 15960,
      "target": 34963
    },
    {
      "buffer": 0,
      "byteOffset": 198120,
      "byteLength": 768,
      "target": 34962,
      "byteStride": 12
    },
    {
      "buffer": 0,
      "byteOffset": 198888,
      "byteLength": 768,
      "target": 34962,
      "byteStride": 12
    },
    {
      "buffer": 0,
      "byteOffset": 199656,
      "byteLength": 512,
      "target": 34962,
      "byteStride": 8
    },
    {
      "buffer": 0,
      "byteOffset": 200168,
      "byteLength": 512,
      "target": 34962,
      "byteStride": 8
    },
    {
      "buffer": 0,
      "byteOffset": 200680,
      "byteLength": 512,
      "target": 34962,
      "byteStride": 8
    },
    {
      "buffer": 0,
      "byteOffset": 201192,
      "byteLength": 240,
      "target": 34963
    }
  ],
  "buffers": [
    {
      "byteLength": 201432,
      "uri": "data:application/octet-stream;base64,"
    }
  ],
  "accessors": [
    {
      "bufferView": 0,
      "componentType": 5126,
      "count": 4554,
      "max": [
        1.0089346170425415,
        1.317352294921875,
        1.0083990097045898
      ],
      "min": [
        -1.0089346170425415,
        -1.2691116333007812,
        -1.0091087818145752
      ],
      "type": "VEC3"
    },
    {
      "bufferView": 1,
      "componentType": 5126,
      "count": 4554,
      "max": [
        1,
        1,
        1
      ],
      "min": [
        -1,
        -1,
        -1
      ],
      "type": "VEC3"
    },
    {
      "bufferView": 2,
      "componentType": 5126,
      "count": 4554,
      "max": [
        1,
        0.9898281097412109
      ],
      "min": [
        5.736947059631348e-7,
        0
      ],
      "type": "VEC2"
    },
    {
      "bufferView": 3,
      "componentType": 5126,
      "count": 4554,
      "max": [
        1.8617740869522095,
        2.228375196456909
      ],
      "min": [
        -0.8615391254425049,
        -1.2620127201080322
      ],
      "type": "VEC2"
    },
    {
      "bufferView": 4,
      "componentType": 5123,
      "count": 7980,
      "max": [
        4553
      ],
      "min": [
        0
      ],
      "type": "SCALAR"
    },
    {
      "bufferView": 5,
      "componentType": 5126,
      "count": 64,
      "max": [
        0.05004355311393738,
        0.12999999523162842,
        0.03315478563308716
      ],
      "min": [
        -0.04973900318145752,
        -0.12999999523162842,
        -0.03315478563308716
      ],
      "type": "VEC3"
    },
    {
      "bufferView": 6,
      "componentType": 5126,
      "count": 64,
      "max": [
        1,
        1,
        0.8930832147598267
      ],
      "min": [
        -1,
        -1,
        -0.8930832147598267
      ],
      "type": "VEC3"
    },
    {
      "bufferView": 7,
      "componentType": 5126,
      "count": 64,
      "max": [
        0.5168212056159973,
        0.5438581705093384
      ],
      "min": [
        0.48315751552581787,
        0.4561418294906616
      ],
      "type": "VEC2"
    },
    {
      "bufferView": 8,
      "componentType": 5126,
      "count": 64,
      "max": [
        0.5672848224639893,
        0.6754326224327087
      ],
      "min": [
        0.4326300621032715,
        0.32456737756729126
      ],
      "type": "VEC2"
    },
    {
      "bufferView": 9,
      "componentType": 5126,
      "count": 64,
      "max": [
        1.4500973224639893,
        2.9772019386291504
      ],
      "min": [
        -0.451299250125885,
        -1.9772019386291504
      ],
      "type": "VEC2"
    },
    {
      "bufferView": 10,
      "componentType": 5123,
      "count": 120,
      "max": [
        63
      ],
      "min": [
        0
      ],
      "type": "SCALAR"
    }
  ],
  "materials": [
    {
      "pbrMetallicRoughness": {
        "baseColorFactor": [
          0,
          0,
          0,
          1
        ],
        "metallicFactor": 0,
        "roughnessFactor": 1
      },
      "doubleSided": true,
      "name": "Black Plastic"
    },
    {
      "pbrMetallicRoughness": {
        "metallicFactor": 1,
        "roughnessFactor": 1
      },
      "doubleSided": true,
      "name": "Black Metal Paint"
    }
  ],
  "meshes": [
    {
      "primitives": [
        {
          "mode": 4,
          "attributes": {
            "POSITION": 0,
            "NORMAL": 1,
            "TEXCOORD_0": 2,
            "TEXCOORD_1": 3
          },
          "indices": 4,
          "material": 0
        }
      ]
    },
    {
      "primitives": [
        {
          "mode": 4,
          "attributes": {
            "POSITION": 5,
            "NORMAL": 6,
            "TEXCOORD_0": 7,
            "TEXCOORD_1": 8,
            "TEXCOORD_2": 9
          },
          "indices": 10,
          "material": 1
        }
      ]
    }
  ]
}